<svg id="visual" viewBox="0 0 960 540" width="960" height="540" xmlns="http://www.w3.org/2000/svg" xmlns:xlink="http://www.w3.org/1999/xlink" version="1.1"><rect x="0" y="0" width="960" height="540" fill="#2e2e2e"></rect><path d="M0 398L22.8 400.7C45.7 403.3 91.3 408.7 137 402.5C182.7 396.3 228.3 378.7 274 380.5C319.7 382.3 365.3 403.7 411.2 406.5C457 409.3 503 393.7 548.8 385.2C594.7 376.7 640.3 375.3 686 376C731.7 376.7 777.3 379.3 823 383.8C868.7 388.3 914.3 394.7 937.2 397.8L960 401L960 541L937.2 541C914.3 541 868.7 541 823 541C777.3 541 731.7 541 686 541C640.3 541 594.7 541 548.8 541C503 541 457 541 411.2 541C365.3 541 319.7 541 274 541C228.3 541 182.7 541 137 541C91.3 541 45.7 541 22.8 541L0 541Z" fill="#7345d6"></path><path d="M0 395L22.8 400.5C45.7 406 91.3 417 137 423.7C182.7 430.3 228.3 432.7 274 428.8C319.7 425 365.3 415 411.2 411.5C457 408 503 411 548.8 417C594.7 423 640.3 432 686 433.3C731.7 434.7 777.3 428.3 823 429.8C868.7 431.3 914.3 440.7 937.2 445.3L960 450L960 541L937.2 541C914.3 541 868.7 541 823 541C777.3 541 731.7 541 686 541C640.3 541 594.7 541 548.8 541C503 541 457 541 411.2 541C365.3 541 319.7 541 274 541C228.3 541 182.7 541 137 541C91.3 541 45.7 541 22.8 541L0 541Z" fill="#c73d9f"></path><path d="M0 443L22.8 446.8C45.7 450.7 91.3 458.3 137 456.7C182.7 455 228.3 444 274 440.8C319.7 437.7 365.3 442.3 411.2 448.3C457 454.3 503 461.7 548.8 466C594.7 470.3 640.3 471.7 686 472.8C731.7 474 777.3 475 823 469.3C868.7 463.7 914.3 451.3 937.2 445.2L960 439L960 541L937.2 541C914.3 541 868.7 541 823 541C777.3 541 731.7 541 686 541C640.3 541 594.7 541 548.8 541C503 541 457 541 411.2 541C365.3 541 319.7 541 274 541C228.3 541 182.7 541 137 541C91.3 541 45.7 541 22.8 541L0 541Z" fill="#d96178"></path><path d="M0 497L22.8 491.5C45.7 486 91.3 475 137 472C182.7 469 228.3 474 274 477.2C319.7 480.3 365.3 481.7 411.2 483.5C457 485.3 503 487.7 548.8 486.3C594.7 485 640.3 480 686 476C731.7 472 777.3 469 823 467.7C868.7 466.3 914.3 466.7 937.2 466.8L960 467L960 541L937.2 541C914.3 541 868.7 541 823 541C777.3 541 731.7 541 686 541C640.3 541 594.7 541 548.8 541C503 541 457 541 411.2 541C365.3 541 319.7 541 274 541C228.3 541 182.7 541 137 541C91.3 541 45.7 541 22.8 541L0 541Z" fill="#cf8a73"></path><path d="M0 499L22.8 502.3C45.7 505.7 91.3 512.3 137 514.5C182.7 516.7 228.3 514.3 274 512.5C319.7 510.7 365.3 509.3 411.2 509C457 508.7 503 509.3 548.8 510.2C594.7 511 640.3 512 686 512C731.7 512 777.3 511 823 511.7C868.7 512.3 914.3 514.7 937.2 515.8L960 517L960 541L937.2 541C914.3 541 868.7 541 823 541C777.3 541 731.7 541 686 541C640.3 541 594.7 541 548.8 541C503 541 457 541 411.2 541C365.3 541 319.7 541 274 541C228.3 541 182.7 541 137 541C91.3 541 45.7 541 22.8 541L0 541Z" fill="#bfab93"></path></svg>