<svg id="visual" viewBox="0 0 900 450" width="900" height="450" xmlns="http://www.w3.org/2000/svg" xmlns:xlink="http://www.w3.org/1999/xlink" version="1.1"><rect x="0" y="0" width="900" height="450" fill="#2e2e2e"></rect><path d="M0 384L12.5 380.3C25 376.7 50 369.3 75 364.5C100 359.7 125 357.3 150 358.8C175 360.3 200 365.7 225 371.3C250 377 275 383 300 385C325 387 350 385 375 382.7C400 380.3 425 377.7 450 373.8C475 370 500 365 525 363.3C550 361.7 575 363.3 600 365.2C625 367 650 369 675 370.3C700 371.7 725 372.3 750 373C775 373.7 800 374.3 825 371.5C850 368.7 875 362.3 887.5 359.2L900 356L900 451L887.5 451C875 451 850 451 825 451C800 451 775 451 750 451C725 451 700 451 675 451C650 451 625 451 600 451C575 451 550 451 525 451C500 451 475 451 450 451C425 451 400 451 375 451C350 451 325 451 300 451C275 451 250 451 225 451C200 451 175 451 150 451C125 451 100 451 75 451C50 451 25 451 12.5 451L0 451Z" fill="#bfab93"></path><path d="M0 381L12.5 382C25 383 50 385 75 386.3C100 387.7 125 388.3 150 386C175 383.7 200 378.3 225 379.2C250 380 275 387 300 390.8C325 394.7 350 395.3 375 394.8C400 394.3 425 392.7 450 390.3C475 388 500 385 525 386.2C550 387.3 575 392.7 600 390.8C625 389 650 380 675 379.2C700 378.3 725 385.7 750 390C775 394.3 800 395.7 825 393C850 390.3 875 383.7 887.5 380.3L900 377L900 451L887.5 451C875 451 850 451 825 451C800 451 775 451 750 451C725 451 700 451 675 451C650 451 625 451 600 451C575 451 550 451 525 451C500 451 475 451 450 451C425 451 400 451 375 451C350 451 325 451 300 451C275 451 250 451 225 451C200 451 175 451 150 451C125 451 100 451 75 451C50 451 25 451 12.5 451L0 451Z" fill="#cf8a73"></path><path d="M0 389L12.5 388.7C25 388.3 50 387.7 75 391.3C100 395 125 403 150 406C175 409 200 407 225 404C250 401 275 397 300 397.2C325 397.3 350 401.7 375 402.5C400 403.3 425 400.7 450 400C475 399.3 500 400.7 525 399C550 397.3 575 392.7 600 391.8C625 391 650 394 675 397C700 400 725 403 750 402.2C775 401.3 800 396.7 825 394.7C850 392.7 875 393.3 887.5 393.7L900 394L900 451L887.5 451C875 451 850 451 825 451C800 451 775 451 750 451C725 451 700 451 675 451C650 451 625 451 600 451C575 451 550 451 525 451C500 451 475 451 450 451C425 451 400 451 375 451C350 451 325 451 300 451C275 451 250 451 225 451C200 451 175 451 150 451C125 451 100 451 75 451C50 451 25 451 12.5 451L0 451Z" fill="#d96178"></path><path d="M0 412L12.5 413C25 414 50 416 75 415.8C100 415.7 125 413.3 150 413.3C175 413.3 200 415.7 225 416.7C250 417.7 275 417.3 300 415.7C325 414 350 411 375 411C400 411 425 414 450 415.7C475 417.3 500 417.7 525 417.8C550 418 575 418 600 416.8C625 415.7 650 413.3 675 412.7C700 412 725 413 750 413.5C775 414 800 414 825 412.7C850 411.3 875 408.7 887.5 407.3L900 406L900 451L887.5 451C875 451 850 451 825 451C800 451 775 451 750 451C725 451 700 451 675 451C650 451 625 451 600 451C575 451 550 451 525 451C500 451 475 451 450 451C425 451 400 451 375 451C350 451 325 451 300 451C275 451 250 451 225 451C200 451 175 451 150 451C125 451 100 451 75 451C50 451 25 451 12.5 451L0 451Z" fill="#c73d9f"></path><path d="M0 424L12.5 423.5C25 423 50 422 75 423.5C100 425 125 429 150 430.8C175 432.7 200 432.3 225 432C250 431.7 275 431.3 300 430.5C325 429.7 350 428.3 375 428.3C400 428.3 425 429.7 450 429.5C475 429.3 500 427.7 525 427.3C550 427 575 428 600 428.8C625 429.7 650 430.3 675 429.3C700 428.3 725 425.7 750 425.2C775 424.7 800 426.3 825 426.3C850 426.3 875 424.7 887.5 423.8L900 423L900 451L887.5 451C875 451 850 451 825 451C800 451 775 451 750 451C725 451 700 451 675 451C650 451 625 451 600 451C575 451 550 451 525 451C500 451 475 451 450 451C425 451 400 451 375 451C350 451 325 451 300 451C275 451 250 451 225 451C200 451 175 451 150 451C125 451 100 451 75 451C50 451 25 451 12.5 451L0 451Z" fill="#7345d6"></path></svg>